<?xml version="1.0" encoding="iso-8859-1"?>
<!-- Generator: Adobe Illustrator 18.0.0, SVG Export Plug-In . SVG Version: 6.00 Build 0)  -->
<!DOCTYPE svg PUBLIC "-//W3C//DTD SVG 1.1//EN" "http://www.w3.org/Graphics/SVG/1.1/DTD/svg11.dtd">
<svg version="1.1" id="Capa_1" xmlns="http://www.w3.org/2000/svg" xmlns:xlink="http://www.w3.org/1999/xlink" x="0px" y="0px"
	 viewBox="0 0 52 52" style="enable-background:new 0 0 52 52;" xml:space="preserve">
<g>
	<path style="fill:#932C25;" d="M23.88,25c-1.621,0-2.935-1.314-2.935-2.935V23c-1.995,1.803-4.705,2.892-7.547,3.538
		C11.432,30.687,7.549,37.337,1.889,40h12l5,9c0,0,6.395-15.088,7.787-24H23.88z"/>
	<path style="fill:#932C25;" d="M40.69,26.952c-3.61-0.544-7.239-1.687-9.746-3.952v-0.935c0,1.621-1.314,2.935-2.935,2.935h-0.796
		C28.605,33.912,35,49,35,49l5-9h12C46.525,37.424,42.713,31.117,40.69,26.952z"/>
	<path style="fill:#C03A2B;" d="M9.279,10.863C5.378,9.27,2.249,7.227,0.832,5.514C1.792,8.884,2.945,13.619,2.945,17
		c0,0,0.427,4.219-1.995,7.655c-0.769,1.091-0.081,2.6,1.252,2.668C7.208,27.581,16.14,27.341,20.945,23V12.192
		C19.781,13.642,14.759,13.099,9.279,10.863z"/>
	<path style="fill:#C03A2B;" d="M48.945,17c0-3.585,1.297-8.71,2.286-12.096c0.073-0.25,0.005-0.472-0.13-0.635
		c-0.586,1.874-4.273,4.59-9.181,6.594c-4.723,1.928-9.109,2.598-10.975,1.819V23c4.804,4.341,13.736,4.581,18.743,4.323
		c1.333-0.069,2.021-1.577,1.252-2.668C48.517,21.219,48.945,17,48.945,17z"/>
	<path style="fill:#932C25;" d="M20.94,12.691c0-0.331,0.067-0.643,0.167-0.939c-0.565-1.875-4.261-4.604-9.187-6.614
		C6.114,2.767,0.814,2.297,0.084,4.086s3.384,5.162,9.191,7.532c5.479,2.236,10.502,2.779,11.665,1.33V12.691z"/>
	<path style="fill:#932C25;" d="M51.106,4.086c-0.73-1.79-6.03-1.319-11.836,1.051c-4.321,1.764-7.702,4.082-8.849,5.891
		c0.326,0.473,0.519,1.045,0.519,1.663v0.746c1.866,0.78,6.253,0.109,10.975-1.819C47.722,9.248,51.837,5.876,51.106,4.086z"/>
	<path style="fill:#FB7B76;" d="M28.009,25H23.88c-1.621,0-2.935-1.314-2.935-2.935V11.935C20.945,10.314,22.259,9,23.88,9h4.129
		c1.621,0,2.935,1.314,2.935,2.935v10.129C30.945,23.686,29.63,25,28.009,25z"/>
</g>
<g>
</g>
<g>
</g>
<g>
</g>
<g>
</g>
<g>
</g>
<g>
</g>
<g>
</g>
<g>
</g>
<g>
</g>
<g>
</g>
<g>
</g>
<g>
</g>
<g>
</g>
<g>
</g>
<g>
</g>
</svg>
