<?xml version="1.0" encoding="iso-8859-1"?>
<!-- Generator: Adobe Illustrator 18.0.0, SVG Export Plug-In . SVG Version: 6.00 Build 0)  -->
<!DOCTYPE svg PUBLIC "-//W3C//DTD SVG 1.1//EN" "http://www.w3.org/Graphics/SVG/1.1/DTD/svg11.dtd">
<svg version="1.1" id="Capa_1" xmlns="http://www.w3.org/2000/svg" xmlns:xlink="http://www.w3.org/1999/xlink" x="0px" y="0px"
	 viewBox="0 0 57 57" style="enable-background:new 0 0 57 57;" xml:space="preserve">
<g>
	<path style="fill:#659C35;" d="M57,28.957c-10.25,4.333-14-4-14-4c-0.971,5.695-3.72,8.162-6.09,9.223
		C38.8,35.83,40,38.25,40,40.957c0,2.465-0.993,4.698-2.599,6.323l0,0c0.359,1.006,1.312,1.677,2.38,1.677h1.974
		c1.203,0,2.224-0.856,2.471-2.033C45.888,39.02,56,40.957,56,40.957C51.917,34.79,57,28.957,57,28.957z"/>
	<path style="fill:#71C285;" d="M40,40.044c-0.383,0-0.749-0.222-0.914-0.594c-0.225-0.505,0.003-1.096,0.507-1.32l9-4
		c0.506-0.225,1.096,0.004,1.32,0.507c0.224,0.505-0.003,1.096-0.508,1.32l-9,4C40.274,40.016,40.136,40.044,40,40.044z"/>
	<path style="fill:#4C8056;" d="M11,35.457c0-3.044,1.605-5.706,4.009-7.207C11.863,25.329,15,19.043,15,19.043c-7,6.083-13,0-13,0
		c3.417,8.167-2,12-2,12c10.167,0.5,6,10,6,10c3.333-2.833,7-0.087,7-0.087l-0.679-0.963C11.489,38.68,11,37.127,11,35.457z"/>
	<path style="fill:#71C285;" d="M11.999,32.043c-0.156,0-0.314-0.036-0.461-0.113l-0.25-0.13c-2.763-1.439-3.597-1.874-5.196-5.337
		c-0.231-0.501-0.012-1.096,0.489-1.327c0.502-0.23,1.095-0.012,1.327,0.489c1.312,2.843,1.71,3.051,4.303,4.401l0.251,0.131
		c0.49,0.255,0.68,0.86,0.424,1.349C12.708,31.848,12.36,32.043,11.999,32.043z"/>
	<path style="fill:#71C285;" d="M27.518,32.656c1.059-0.445,2.221-0.692,3.44-0.697C33.552,28.383,39,28.043,39,28.043
		c-9.232-5.181,0-17,0-17c-11.399,0-13-11-13-11c-1.602,12.152-13,11-13,11c7.898,4.953,6.855,12.299,5.59,15.963
		c0.299-0.032,0.603-0.05,0.91-0.05C23.212,26.957,26.359,29.34,27.518,32.656z"/>
	<path style="fill:#4C8056;" d="M29.001,33.043c-0.37,0-0.726-0.206-0.899-0.561c-3.578-7.321-3.841-16.332-2.029-20.814
		c0.207-0.511,0.788-0.758,1.302-0.552c0.512,0.207,0.759,0.79,0.552,1.302c-1.352,3.344-1.661,11.754,1.971,19.186
		c0.243,0.496,0.037,1.095-0.459,1.337C29.298,33.011,29.148,33.043,29.001,33.043z"/>
	<circle style="fill:#D34A40;" cx="31" cy="40.957" r="9"/>
	<path style="fill:#C03A2B;" d="M22,40.957c0-3.736,2.277-6.939,5.518-8.3c-1.159-3.316-4.306-5.7-8.018-5.7
		c-4.694,0-8.5,3.806-8.5,8.5c0,4.694,3.806,8.5,8.5,8.5c1.004,0,1.964-0.183,2.858-0.503C22.13,42.66,22,41.824,22,40.957z"/>
	<g>
		<path style="fill:#D66F67;" d="M22.238,42.898c0.041,0.185,0.068,0.375,0.12,0.555c-0.895,0.32-1.854,0.503-2.858,0.503
			c-1.637,0-3.16-0.471-4.457-1.272C13.192,44.15,12,46.412,12,48.957c0,4.418,3.582,8,8,8c4.26,0,7.733-3.333,7.976-7.532
			C25.092,48.395,22.908,45.933,22.238,42.898z"/>
		<path style="fill:#D66F67;" d="M22.148,42.486c-0.061-0.354-0.098-0.717-0.116-1.084C22.052,41.769,22.086,42.131,22.148,42.486z"
			/>
	</g>
	<path style="fill:#C03A2B;" d="M33,41.178c-0.892,0-1.782-0.248-2.594-0.732c-1.16-0.692-2.024-1.818-2.371-3.088
		c-0.145-0.533,0.169-1.083,0.702-1.228c0.533-0.145,1.082,0.169,1.228,0.702c0.211,0.776,0.746,1.467,1.466,1.896
		c0.726,0.433,1.545,0.557,2.306,0.351c0.535-0.146,1.082,0.169,1.228,0.702c0.145,0.533-0.169,1.083-0.702,1.228
		C33.847,41.122,33.423,41.178,33,41.178z"/>
	<path style="fill:#D34A40;" d="M19.018,33.927c-0.958,0-1.923-0.39-2.718-1.169c-0.395-0.387-0.4-1.02-0.014-1.414
		c0.387-0.395,1.019-0.4,1.414-0.014c0.818,0.802,1.808,0.806,2.586,0.014c0.386-0.395,1.02-0.4,1.414-0.014
		c0.395,0.387,0.4,1.02,0.014,1.414C20.94,33.532,19.982,33.927,19.018,33.927z"/>
	<path style="fill:#C03A2B;" d="M21.109,51.401c-0.713,0-1.418-0.182-2.058-0.539c-0.989-0.552-1.704-1.456-2.013-2.546
		c-0.151-0.531,0.158-1.084,0.689-1.235c0.531-0.151,1.085,0.158,1.235,0.689c0.164,0.576,0.541,1.054,1.063,1.345
		c0.522,0.291,1.126,0.361,1.704,0.198c0.533-0.15,1.084,0.157,1.235,0.689c0.151,0.531-0.158,1.084-0.689,1.235
		C21.89,51.347,21.498,51.401,21.109,51.401z"/>
</g>
<g>
</g>
<g>
</g>
<g>
</g>
<g>
</g>
<g>
</g>
<g>
</g>
<g>
</g>
<g>
</g>
<g>
</g>
<g>
</g>
<g>
</g>
<g>
</g>
<g>
</g>
<g>
</g>
<g>
</g>
</svg>
