<?xml version="1.0" encoding="iso-8859-1"?>
<!-- Generator: Adobe Illustrator 18.0.0, SVG Export Plug-In . SVG Version: 6.00 Build 0)  -->
<!DOCTYPE svg PUBLIC "-//W3C//DTD SVG 1.1//EN" "http://www.w3.org/Graphics/SVG/1.1/DTD/svg11.dtd">
<svg version="1.1" id="Capa_1" xmlns="http://www.w3.org/2000/svg" xmlns:xlink="http://www.w3.org/1999/xlink" x="0px" y="0px"
	 viewBox="0 0 56.997 56.997" style="enable-background:new 0 0 56.997 56.997;" xml:space="preserve">
<g>
	<path style="fill:#ECF0F1;" d="M45.476,2.646c-0.677-1.244-1.871-2.117-3.277-2.396c-4.642-0.923-8.978,0.741-12.47,4.725
		c-0.526,0.6-1.459,0.6-1.985-0.001c-3.489-3.991-7.826-5.65-12.505-4.724c-1.405,0.279-2.6,1.152-3.275,2.395
		c-1.172,2.149-1.34,4.511-0.475,6.651c0.963,2.385,3.173,4.473,6.594,6.239c1.055,0.545,0.96,2.076-0.166,2.452l-0.03,0.01h15.259
		l0.293-0.092c6.864-2.155,11.073-5.051,12.51-8.607C47.059,6.554,46.304,4.166,45.476,2.646z M15.476,4.559
		c0.104-0.191,0.313-0.338,0.544-0.384c0.593-0.118,1.179-0.178,1.742-0.178c4.873,0,8.1,4.57,9.864,8.093
		c0.439,0.877-0.215,1.907-1.196,1.907h-1.303c-0.144,0-0.291-0.023-0.427-0.068c-5.222-1.705-8.59-3.876-9.502-6.131
		C14.778,6.759,14.871,5.669,15.476,4.559z M39.676,3.997c0.565,0,1.151,0.06,1.744,0.178c0.23,0.046,0.438,0.193,0.543,0.384
		c0.604,1.111,0.697,2.201,0.278,3.24c-0.835,2.065-3.732,4.06-8.226,5.691c-0.679,0.247-1.433-0.076-1.7-0.748
		c-0.253-0.636-0.567-1.369-0.947-2.154c-0.205-0.423-0.188-0.925,0.078-1.313C33.242,6.657,35.977,3.997,39.676,3.997z"/>
	<polygon style="fill:#E64C3C;" points="50.498,26.997 35.142,26.997 39.498,31.997 34.609,31.997 34.609,37.997 29.009,29.314 
		23.498,37.997 23.498,31.997 18.498,31.997 22.855,26.997 6.498,26.997 6.498,56.997 50.498,56.997 	"/>
	<path style="fill:#C03A2B;" d="M52.037,15.997H4.959c-0.807,0-1.461,0.654-1.461,1.461v8.078c0,0.807,0.654,1.461,1.461,1.461
		H22.19c0.422,0,13.194,0,13.617,0h16.231c0.807,0,1.461-0.654,1.461-1.461v-8.078C53.498,16.651,52.844,15.997,52.037,15.997z"/>
	<polygon style="fill:#FFFFFF;" points="28.241,23.997 25.469,23.997 18.498,31.997 23.498,31.997 23.498,37.997 29.009,29.314 
		34.609,37.997 34.609,31.997 39.498,31.997 32.528,23.997 29.756,23.997 	"/>
	<polygon style="fill:#D1D4D1;" points="28.241,23.997 29.756,23.997 32.498,23.997 32.498,15.997 25.498,15.997 25.498,23.997 	"/>
	<polygon style="fill:#D1D4D1;" points="29.009,29.314 26.498,33.27 26.498,56.997 31.498,56.997 31.498,33.173 	"/>
</g>
<g>
</g>
<g>
</g>
<g>
</g>
<g>
</g>
<g>
</g>
<g>
</g>
<g>
</g>
<g>
</g>
<g>
</g>
<g>
</g>
<g>
</g>
<g>
</g>
<g>
</g>
<g>
</g>
<g>
</g>
</svg>
