<?xml version="1.0" encoding="UTF-8" standalone="no"?>
<svg
   xmlns:dc="http://purl.org/dc/elements/1.1/"
   xmlns:cc="http://creativecommons.org/ns#"
   xmlns:rdf="http://www.w3.org/1999/02/22-rdf-syntax-ns#"
   xmlns:svg="http://www.w3.org/2000/svg"
   xmlns="http://www.w3.org/2000/svg"
   xmlns:sodipodi="http://sodipodi.sourceforge.net/DTD/sodipodi-0.dtd"
   xmlns:inkscape="http://www.inkscape.org/namespaces/inkscape"
   width="555"
   height="350"
   id="svg2"
   version="1.1"
   inkscape:version="0.91 r13725"
   sodipodi:docname="santahat2.svg">
  <defs
     id="defs15" />
  <sodipodi:namedview
     pagecolor="#ffffff"
     bordercolor="#666666"
     borderopacity="1"
     objecttolerance="10"
     gridtolerance="10"
     guidetolerance="10"
     inkscape:pageopacity="0"
     inkscape:pageshadow="2"
     inkscape:window-width="1248"
     inkscape:window-height="825"
     id="namedview13"
     showgrid="false"
     inkscape:zoom="0.68500969"
     inkscape:cx="191.72436"
     inkscape:cy="66.399982"
     inkscape:window-x="0"
     inkscape:window-y="0"
     inkscape:window-maximized="0"
     inkscape:current-layer="g4585"
     showguides="true"
     inkscape:guide-bbox="true">
    <sodipodi:guide
       position="260,440"
       orientation="1,0"
       id="guide4166" />
    <inkscape:grid
       type="xygrid"
       id="grid4176" />
    <sodipodi:guide
       position="643.78651,128.46534"
       orientation="0,1"
       id="guide4178" />
  </sodipodi:namedview>
  <metadata
     id="metadata7">image/svg+xml<rdf:RDF>
  <cc:Work
     rdf:about="">
    <dc:format>image/svg+xml</dc:format>
    <dc:type
       rdf:resource="http://purl.org/dc/dcmitype/StillImage" />
    <dc:title></dc:title>
  </cc:Work>
</rdf:RDF>
</metadata>
  <g
     id="g5"
     transform="translate(0,-130)">
    <title
       id="title7">Layer 1</title>
    <g
       id="layer1">
      <g
         id="g4585">
        <g
           id="g4170"
           transform="translate(-0.221144,134.32286)">
          <path
             id="path3698"
             d="M 480.35278,91.744621 C 475.39688,82.193657 401.19437,12.182493 343.2121,5.552342 285.08368,-1.094557 244.39009,36.216892 236.32294,42.018295 228.25586,47.819698 196.9958,114.95027 196.9958,114.95027 l -27.22644,75.41826 -18.15094,33.97965 -17.14264,22.37683 -14.11742,13.26037 -23.192939,8.28766 c 0,0 2.647018,-4.04022 6.176369,0.93241 3.52936,4.97262 -16.76445,15.74664 14.99977,20.09768 31.94283,4.37558 61.00747,-5.28335 98.82198,-22.68756 37.81458,-17.40422 38.82297,-35.84444 45.37748,-48.0688 6.55453,-12.22438 -19.15938,-0.82878 -19.15938,-0.82878 l -2.01676,-12.4316 -9.07551,-16.57542 -10.08386,-35.63721 10.08386,-9.11647 6.05032,-4.1439 -5.04192,-12.4316 71.59554,-24.8631 16.13419,-18.232999 23.1929,7.458931 8.06711,-13.260338 17.14267,5.801407 7.05868,-13.260376 7.05872,-0.828743 6.05032,14.917862 43.36069,9.116501 8.06707,-8.28772 9.0755,9.945282 c -6.50048,-6.054932 35.20755,5.407093 30.25162,-4.143875 z"
             inkscape:connector-curvature="0"
             style="fill:#ff0000;fill-rule:evenodd;stroke:#000000;stroke-width:1px" />
          <path
             d="m 76.078537,343.95703 c 1.725731,-0.99335 3.13765,-2.75687 3.13765,-3.91885 0,-3.92649 2.961868,-4.63129 11.734688,-2.79236 9.807835,2.056 11.612675,1.26935 13.302645,-5.79813 1.11963,-4.68213 1.33816,-4.83999 7.18426,-5.18854 4.93386,-0.29412 6.27391,-0.88772 7.37425,-3.26626 1.75701,-3.79813 1.72056,-9.38956 -0.067,-10.29764 -0.77653,-0.39441 -1.41174,-1.98505 -1.41174,-3.53473 0,-2.02548 -1.5877,-3.64139 -5.64698,-5.74753 -6.46011,-3.35168 -6.94703,-5.00018 -2.47054,-8.36377 2.34871,-1.76477 5.93545,-2.58166 13.76449,-3.13473 19.97973,-1.41162 30.35755,-2.61105 34.32662,-3.96744 2.18585,-0.74698 6.89465,-1.35815 10.46399,-1.35815 5.94285,0 15.69804,-1.78482 26.50239,-4.84897 2.32932,-0.66065 6.79609,-1.5672 9.92614,-2.01456 5.82948,-0.83325 14.06762,-5.02212 15.37227,-7.81647 0.40162,-0.86013 1.60101,-1.56393 2.66537,-1.56393 1.06427,0 4.28624,-2.0885 7.15987,-4.64111 2.87364,-2.55259 6.17724,-4.64115 7.34138,-4.64115 2.57805,0 13.29881,-8.77864 13.29881,-10.88966 0,-0.83254 1.27051,-2.45873 2.82349,-3.61383 1.55287,-1.15505 2.82349,-2.61425 2.82349,-3.24269 0,-0.62844 0.98848,-1.73667 2.1967,-2.46276 1.20822,-0.72616 2.70562,-4.17755 3.32748,-7.6698 0.62186,-3.49217 2.1705,-7.91587 3.44147,-9.83036 1.271,-1.91443 2.31479,-4.10264 2.31955,-4.86272 0.0163,-2.58316 2.84039,-2.83223 6.72409,-0.59296 4.97797,2.87018 13.98709,5.27324 16.63657,4.43759 1.14428,-0.36082 2.05944,-2.13261 2.05944,-3.9869 0,-1.83631 1.23923,-4.25914 2.75516,-5.38671 1.90375,-1.416 2.88525,-3.89164 3.17639,-8.01169 0.37924,-5.36814 0.7731,-6.00196 3.95066,-6.35832 4.49511,-0.50422 8.47045,-3.40315 8.47045,-6.17688 0,-1.18365 1.3285,-3.06074 2.9524,-4.17125 1.62375,-1.11049 3.53912,-3.24856 4.25638,-4.75117 1.02542,-2.14826 2.02426,-2.58351 4.67437,-2.03679 6.36215,1.31232 12.27838,-0.50246 14.25904,-4.37407 1.63375,-3.19347 2.38754,-3.54111 6.97387,-3.21634 5.65335,0.40027 9.23624,-1.32614 9.23624,-4.45041 0,-1.11212 1.20828,-3.28454 2.68518,-4.82766 1.47681,-1.54305 2.90619,-4.07422 3.17642,-5.62485 0.55362,-3.17754 6.08377,-4.77858 16.19654,-4.68929 3.52517,0.0312 6.51825,-0.63685 7.5845,-1.69282 2.25186,-2.23006 4.88888,-2.20818 9.13006,0.0758 4.79361,2.58145 12.39341,1.75968 14.14948,-1.53003 1.55322,-2.90976 3.54755,-3.47482 3.54755,-1.00518 0,1.98687 10.59387,9.99737 13.22146,9.99737 1.05567,0 4.3176,1.56642 7.24875,3.48084 3.80728,2.48677 6.85956,3.48085 10.68707,3.48085 4.07425,0 5.56733,0.54268 6.23252,2.26524 0.50174,1.29944 4.60543,3.72064 9.62439,5.6786 4.81228,1.8774 10.22824,4.82448 12.03546,6.54918 2.77221,2.64554 4.0292,3.02109 8.04129,2.4025 3.90695,-0.60237 5.03695,-0.30084 6.33349,1.69028 3.88501,5.96612 17.47803,8.99034 22.758,5.06312 1.38812,-1.03245 4.5914,-2.22474 7.11835,-2.6495 6.84814,-1.15114 9.95562,-6.13361 7.84668,-12.5813 -2.00806,-6.13935 -0.47889,-7.90995 5.27783,-6.11109 8.47613,2.64859 13.01843,-2.57537 8.70434,-10.01062 -3.89117,-6.70645 -3.26031,-7.80272 4.01832,-6.98278 5.33361,0.60083 6.77362,0.31811 9.17639,-1.80147 3.59546,-3.17194 3.57379,-3.50081 -0.58612,-8.91683 -3.70148,-4.81909 -9.23114,-8.86902 -13.7016,-10.03518 -4.12891,-1.07706 -2.58209,-4.38356 2.4461,-5.22876 2.39246,-0.40211 5.08857,-1.1064 5.99134,-1.56494 2.28607,-1.16121 2.05072,-4.77469 -0.42078,-6.46044 -3.01874,-2.0591 -12.61493,-2.82946 -17.56805,-1.41034 -3.97498,1.13883 -4.5373,0.95272 -7.4588,-2.46878 -1.73786,-2.03524 -3.98224,-4.22259 -4.98749,-4.8608 -1.00525,-0.63814 -2.93442,-2.98766 -4.28705,-5.22126 -2.01386,-3.32547 -3.42355,-4.16601 -7.7832,-4.641129 -3.67664,-0.400612 -6.07904,-1.510826 -7.76459,-3.588203 -1.34238,-1.65448 -3.71124,-4.535706 -5.26416,-6.402748 -1.55295,-1.86705 -7.3819,-6.778908 -12.95334,-10.915237 -5.57144,-4.136368 -10.53564,-8.603317 -11.03152,-9.926552 -0.81681,-2.179459 -13.48514,-12.490616 -34.73887,-28.275116 -4.34558,-3.227314 -8.92901,-5.867828 -10.18548,-5.867828 -1.25647,0 -2.93402,-0.997578 -3.728,-2.21685 -0.79397,-1.219273 -3.83392,-3.401773 -6.75546,-4.85 -2.92154,-1.448191 -7.64838,-4.119514 -10.50406,-5.936241 -2.85565,-1.816729 -7.30264,-3.882311 -9.8822,-4.59017 -2.5795,-0.707825 -6.27823,-2.410748 -8.21936,-3.784227 -1.9412,-1.373478 -8.29398,-4.234275 -14.11743,-6.357325 -5.82349,-2.12305 -12.66633,-4.671327 -15.20633,-5.662884 -3.90714,-1.52517 -5.9972,-1.593934 -13.57437,-0.446471 -4.92585,0.74596 -10.99799,1.356305 -13.49363,1.356305 -4.42556,0 -19.61346,4.262283 -27.11895,7.61059 -2.06098,0.919394 -4.62519,1.671657 -5.69825,1.671657 -1.07312,0 -9.86975,3.360487 -19.54815,7.467714 -15.80957,6.709112 -18.61289,8.388666 -27.59711,16.534 -11.63857,10.551868 -22.14706,22.904957 -25.97244,30.531479 -0.80014,1.59539 -2.47469,4.385612 -3.721,6.2005 -1.24638,1.814888 -3.08302,5.991905 -4.08142,9.282249 -1.9527,6.435295 -4.563,12.880577 -6.52801,16.119148 -0.67244,1.108086 -1.22252,3.035259 -1.22252,4.282569 0,1.24732 -0.58008,2.56248 -1.28897,2.92252 -0.70888,0.3601 -1.73693,2.87103 -2.28452,5.57982 -0.54757,2.70885 -1.8629,6.31829 -2.92291,8.02104 -2.87079,4.61167 -8.9579,20.43155 -9.93829,25.82899 -0.84185,4.6344 -7.31867,19.25916 -11.10678,25.07926 -1.05666,1.62342 -2.68554,6.58366 -3.61976,11.02265 -1.00125,4.75734 -4.22677,12.40943 -7.85661,18.63843 -3.38682,5.81218 -6.15793,11.25341 -6.15793,12.0916 0,0.8382 -0.84829,2.34833 -1.88513,3.35578 -1.03683,1.00753 -2.74112,3.65924 -3.78743,5.89276 -1.04631,2.23359 -3.37443,5.53689 -5.17358,7.34085 -1.79923,1.80386 -3.27129,3.81701 -3.27129,4.47357 0,0.65662 -1.58821,2.7451 -3.52936,4.64111 -1.94114,1.89601 -3.52935,4.07955 -3.52935,4.85224 0,0.77276 -3.22631,3.99597 -7.16952,7.16273 -3.94322,3.16684 -8.0417,7.11868 -9.10774,8.78198 -1.32524,2.0676 -3.94554,3.48618 -8.28374,4.48441 -5.82197,1.33966 -6.65865,1.25772 -10.14113,-0.99371 -2.087624,-1.34964 -4.650887,-2.45392 -5.696083,-2.45392 -1.045189,0 -2.258926,-1.43582 -2.69725,-3.19077 -2.219643,-8.88672 -3.99604,-12.01545 -9.660332,-17.01457 -6.149574,-5.42734 -6.19352,-5.44278 -10.938675,-3.85142 -3.695663,1.23938 -5.3871,2.88037 -7.54073,7.31591 -1.526947,3.14502 -2.966778,5.94233 -3.199512,6.21625 -0.232735,0.27393 -2.660202,-0.37874 -5.394421,-1.45035 -2.734215,-1.07162 -6.171547,-1.94841 -7.638523,-1.94841 -4.369473,0 -10.970131,5.44051 -12.326641,10.16018 -1.047005,3.64273 -2.312523,4.75903 -7.845152,6.92032 -3.924082,1.53286 -7.451111,3.93466 -8.705343,5.92804 -1.15962,1.8431 -3.981556,3.98873 -6.270812,4.76809 -6.959193,2.36914 -10.422116,6.34223 -11.18029,12.82755 -0.537848,4.60067 -0.129852,6.37686 1.885139,8.20685 2.43324,2.20974 2.443063,2.51419 0.183361,5.65817 -2.666319,3.70981 -3.083793,8.4306 -1.025116,11.5921 0.74973,1.15137 5.037864,3.29092 9.529263,4.75458 11.213635,3.65436 11.695561,4.09088 11.695561,10.5921 0,7.30368 4.344055,14.5824 9.31497,15.60779 1.998535,0.41229 7.716244,0.48019 12.706116,0.15103 7.139969,-0.47107 10.184727,-0.13248 14.294411,1.5896 6.34724,2.65955 12.808048,2.8046 17.016567,0.38184 z m -17.301346,-6.9653 c -3.424664,-3.6901 -3.653694,-4.4866 -2.149235,-7.47177 1.941402,-3.85202 0.981258,-5.80207 -2.856834,-5.80207 -3.294037,0 -5.613277,3.30744 -5.613277,8.00492 0,5.47012 -8.751099,7.97558 -14.906448,4.26776 -2.345095,-1.41266 -2.740337,-3.09226 -2.740337,-11.64395 0,-11.198 -0.828053,-12.27628 -9.231474,-12.0217 -13.79284,0.41797 -19.621363,-9.53632 -6.841661,-11.68451 4.947735,-0.8317 7.755451,-4.76926 3.400883,-4.76926 -1.260176,0 -4.165606,-0.79657 -6.456413,-1.77017 -3.411913,-1.45013 -4.16509,-2.50653 -4.16509,-5.84225 0,-4.7414 3.547538,-9.79511 6.868115,-9.78415 1.269483,0.004 4.214031,1.04507 6.543442,2.31292 9.037947,4.91944 13.880814,1.16221 6.532928,-5.06851 -3.902887,-3.30954 -4.203089,-4.00879 -2.528625,-5.89078 1.686096,-1.89517 3.176163,-2.04409 13.236038,-1.32287 13.915367,0.99768 15.635929,-0.48758 8.315872,-7.17847 -3.82275,-3.49429 -4.501049,-4.83154 -3.530994,-6.96147 2.824692,-6.20201 11.413368,-3.82013 15.672726,4.34651 5.101196,9.78082 9.595436,8.40518 9.595436,-2.93695 0,-14.24049 4.961525,-17.30627 12.71904,-7.85922 4.710434,5.73639 4.898361,7.91829 2.015427,23.40008 -1.603981,8.61386 2.911118,9.22113 9.60466,1.29178 2.127869,-2.52075 4.510185,-4.58319 5.294037,-4.58319 2.547753,0 1.508339,3.22165 -2.211792,6.85526 -4.241173,4.14248 -4.028435,7.49112 0.509758,8.02279 3.701431,0.43363 8.422807,5.61213 6.513457,7.1442 -0.69778,0.55987 -3.486968,1.1857 -6.19818,1.39072 -7.798103,0.58978 -7.186325,3.65823 1.657921,8.31573 12.194469,6.42163 19.417929,18.17197 11.728139,19.07779 -1.79941,0.21204 -4.8739,-1.37973 -8.40403,-4.35104 -8.14182,-6.85285 -14.289334,-5.69965 -8.477605,1.59036 3.250778,4.07755 4.313553,13.75943 1.705742,15.53821 -3.498337,2.38623 -6.439621,0.35254 -9.469734,-6.54773 -3.863159,-8.7973 -4.790482,-9.98505 -8.114761,-10.39487 -2.713882,-0.33447 -2.808754,0.1308 -2.146736,10.53226 0.686829,10.7915 0.660027,10.90332 -3.206757,13.4032 -5.44146,3.51782 -8.234791,3.16281 -12.663635,-1.60956 z M 106.66901,284.0578 c -4.30322,-3.10529 -4.98531,-4.22614 -4.29581,-7.05933 1.11198,-4.56967 6.13088,-10.13433 9.14049,-10.13433 2.78514,0 24.69929,-17.02286 29.8733,-23.20563 1.86919,-2.23352 4.44521,-5.00052 5.72452,-6.1489 1.2793,-1.14831 3.4169,-4.28109 4.75025,-6.96168 1.33332,-2.68053 6.26228,-11.66138 10.95315,-19.95741 10.26253,-18.14978 10.75911,-19.09855 17.30728,-33.06801 2.84183,-6.06244 6.07659,-12.73725 7.18848,-14.83289 1.1118,-2.09572 2.02145,-4.93034 2.02145,-6.29918 0,-2.50972 1.64801,-7.36577 5.0351,-14.83664 1.01263,-2.23352 2.48451,-6.67161 3.27078,-9.86238 3.97983,-16.14988 8.2509,-29.72378 11.64034,-36.993588 1.45292,-3.116371 2.64166,-6.653732 2.64166,-7.860893 0,-1.207123 2.22343,-5.823601 4.94105,-10.258827 2.71759,-4.435219 4.94115,-8.796326 4.94115,-9.69136 0,-0.895035 0.88149,-2.2286 1.95889,-2.963516 1.07752,-0.734913 3.86516,-4.584255 6.19487,-8.554096 3.15441,-5.374973 7.83033,-10.106354 18.31357,-18.53064 7.74271,-6.222029 14.82004,-11.312738 15.72736,-11.312738 2.15613,0 22.83044,-7.987448 25.56897,-9.878498 2.42126,-1.671976 17.26291,-5.407834 31.76416,-7.995522 13.84283,-2.4702 32.74829,-0.072942 42.79791,5.426848 2.86078,1.565573 9.33072,4.769128 14.37775,7.119008 18.95471,8.825399 41.35861,21.577368 48.82937,27.793058 3.17423,2.640942 14.84992,11.850388 25.94608,20.465492 11.09616,8.615074 21.18213,16.917763 22.41327,18.450409 2.11941,2.638245 2.05774,2.88533 -1.15842,4.641121 -4.02124,2.19532 -19.7962,2.850136 -19.7962,0.821732 0,-1.600166 -9.40027,-8.829613 -11.48096,-8.829613 -0.82703,0 -3.28403,1.566391 -5.45993,3.480843 -4.99063,4.390816 -11.14459,4.581497 -21.49786,0.666046 -4.09357,-1.548149 -11.0958,-3.685257 -15.56046,-4.749123 -4.46463,-1.063858 -8.11746,-2.510315 -8.11746,-3.214317 0,-2.615379 -7.40424,-9.942909 -11.43283,-11.314369 -3.60532,-1.227379 -4.56543,-1.124092 -7.107,0.764442 -1.61621,1.200935 -3.90304,4.163208 -5.08188,6.582848 -1.17874,2.419601 -2.54016,4.233421 -3.0253,4.030708 -0.4851,-0.202721 -3.25412,-1.361404 -6.15347,-2.574837 -4.61267,-1.930565 -5.71994,-2.008957 -8.86148,-0.627129 -1.97452,0.868515 -3.94769,2.750252 -4.3848,4.181587 -0.43713,1.431412 -1.87002,3.402275 -3.18423,4.379768 -2.15805,1.605164 -3.06839,1.510231 -9.40225,-0.980545 -14.37369,-5.652367 -16.66187,-5.079163 -19.75986,4.950142 -1.56152,5.055298 -2.0621,5.497414 -6.96753,6.153831 -5.09329,0.681549 -7.74737,2.47303 -7.79278,5.260138 -0.0283,1.72895 -3.36472,2.7347 -9.07233,2.7347 -3.12137,0 -7.02689,1.47358 -12.23731,4.61719 -12.29242,7.41648 -13.21148,7.66746 -17.62539,4.81392 -2.10083,-1.35815 -5.22374,-2.46942 -6.9399,-2.46942 -3.84068,0 -8.64745,4.15184 -8.07944,6.97875 0.29856,1.48612 -0.9741,2.46546 -4.41748,3.39948 -9.34987,2.53613 -10.62288,5.45772 -7.23202,16.59829 0.7502,2.46462 0.46689,3.19078 -1.24454,3.19078 -8.06453,0 -13.3123,6.23934 -11.45068,13.61397 1.33342,5.28195 1.00104,7.27661 -1.61347,9.68308 -2.10753,1.93977 -2.65205,7.80371 -0.90977,9.7978 0.57042,0.65287 2.78424,2.10074 4.91946,3.21753 3.2168,1.68236 3.89002,2.87111 3.92723,6.93485 0.0247,2.69746 0.97765,5.91797 2.11757,7.15672 1.14003,1.23874 2.07277,3.66943 2.07277,5.40157 0,1.89982 1.96028,5.07771 4.94106,8.00993 2.71759,2.67337 4.94114,6.14253 4.94114,7.70924 0,7.31832 7.55046,12.58348 13.98593,9.75283 3.89806,-1.71457 3.90316,0.19354 0.0222,8.31126 -3.0448,6.36881 -12.56074,16.41765 -23.75272,25.08299 -10.44494,8.08693 -11.95095,8.76253 -31.3955,14.08351 -4.38033,1.19864 -9.14496,2.72074 -10.58808,3.38233 -8.8295,4.04794 -25.08418,8.71033 -32.96509,9.45538 -5.0532,0.47775 -10.97599,1.44766 -13.16185,2.15537 -2.18577,0.70773 -8.8563,1.29474 -14.8233,1.30453 -5.96699,0.01 -11.80206,0.5239 -12.96668,1.14249 -3.11576,1.65494 -3.65662,1.50696 -9.2525,-2.5311 z m 166.6217,-75.31146 c -0.53366,-1.38187 -2.14954,-2.21681 -4.29028,-2.21681 -2.65665,0 -3.43421,0.61306 -3.43421,2.70736 0,4.23294 -1.68066,4.59545 -5.07672,1.09499 l -3.12256,-3.21846 -2.60614,3.7617 c -4.50445,6.50166 -9.68017,3.83098 -8.11967,-4.18979 0.85115,-4.37449 0.63121,-4.83595 -2.81775,-5.91365 -6.03533,-1.88595 -6.13744,-4.47046 -0.35388,-8.955 2.83571,-2.19876 5.15582,-4.38257 5.15582,-4.85294 0,-2.16087 -3.52962,-3.34112 -8.38956,-2.80538 -6.87694,0.75804 -8.6371,-2.08063 -4.28795,-6.91536 3.65447,-4.06241 3.17279,-7.92228 -1.21193,-9.71198 -2.0093,-0.82014 -2.69992,-1.65297 -1.76463,-2.128 2.51453,-1.27727 1.76338,-4.58121 -1.99277,-8.76557 -6.88839,-7.67361 -3.64253,-10.78897 8.01645,-7.69423 10.31101,2.73691 11.95143,2.5069 13.00521,-1.82327 0.81405,-3.34516 0.16711,-4.32967 -6.47998,-9.86147 -6.91457,-5.75445 -7.23346,-6.2693 -5.01331,-8.09407 1.99164,-1.63681 3.18581,-1.7431 7.46343,-0.66412 4.41601,1.11389 5.45405,0.98735 7.81486,-0.95293 1.49727,-1.2306 2.72237,-3.08157 2.72237,-4.11317 0,-1.84976 1.63919,-1.8288 7.30249,0.0933 1.53347,0.52051 3.26577,-0.0589 4.9411,-1.65254 7.93728,-7.55089 13.73218,-11.07111 20.60412,-12.5165 5.62168,-1.18245 8.1749,-1.22579 11.21631,-0.19036 5.34552,1.81981 8.73563,-0.39014 7.62155,-4.96837 -0.92269,-3.79181 1.48874,-4.323577 6.75248,-1.48902 4.26596,2.29726 8.36505,1.07317 7.41433,-2.21405 -2.09466,-7.242302 -2.55841,-13.476051 -1.00238,-13.476051 2.93109,0 9.16913,3.189537 13.41285,6.858078 4.71023,4.071785 7.10064,4.479912 9.10202,1.553925 0.80902,-1.1828 3.04837,-2.030457 5.36413,-2.030457 3.77765,0 3.96204,-0.245239 3.70807,-4.93119 -0.34912,-6.44075 2.39078,-6.523499 9.60565,-0.29007 7.24875,6.262711 10.39206,6.239624 9.16495,-0.06738 -1.05499,-5.422531 3.44415,-15.574814 6.53134,-14.737778 2.73651,0.741959 5.27384,5.638382 5.29706,10.222031 0.0297,5.87722 1.99893,6.903687 13.24448,6.903687 8.58725,0 10.97647,0.515411 18.8248,4.060982 12.18957,5.506763 17.78103,5.412933 21.48196,-0.360565 2.72736,-4.254738 4.99927,-2.451324 4.54584,3.608452 -0.59549,7.958876 0.608,10.095316 5.6867,10.095316 2.92353,0 5.51859,-1.09011 8.18961,-3.44013 4.49451,-3.95433 5.69327,-3.54812 5.69327,1.9295 0,5.52395 3.35751,6.14586 8.98361,1.66415 2.50931,-1.9989 5.31869,-3.63437 6.24313,-3.63437 0.92447,0 2.08521,2.07865 2.5795,4.61924 1.51117,7.76702 4.00229,8.21084 10.98776,1.95748 6.69693,-5.99509 8.50577,-6.51886 10.72797,-3.10636 1.12979,1.73511 0.96646,3.16485 -0.65622,5.74383 -2.89191,4.59615 -2.72369,5.86946 0.77521,5.86946 2.54202,0 2.80804,0.47746 1.9841,3.56079 -0.79868,2.98852 -0.47638,3.66292 2.00543,4.19632 1.62637,0.34956 2.95703,1.31523 2.95703,2.14607 0,0.83077 4.0676,2.62296 9.03909,3.98273 10.22571,2.79674 22.40271,8.94345 21.61744,10.91211 -0.83594,2.09593 -7.84327,2.21455 -13.86402,0.23463 -11.50342,-3.78288 -12.46173,-1.6968 -4.08685,8.89608 8.5592,10.826 7.64246,12.36502 -4.15253,6.97117 -5.55273,-2.53918 -7.33685,-2.89731 -8.73752,-1.75352 -1.40478,1.14703 -0.98754,3.23835 2.06669,10.35896 4.64953,10.83989 3.38995,13.23523 -3.90415,7.42476 -6.74661,-5.3743 -9.27209,-4.29886 -9.27209,3.94824 0,3.52992 -0.58335,6.41794 -1.29633,6.41794 -6.35638,0 -10.54089,-6.09275 -9.2067,-13.40512 0.86356,-4.73276 0.69278,-5.15937 -2.06521,-5.15937 -2.04621,0 -3.75934,1.29732 -5.36289,4.06098 -4.32937,7.46167 -11.29217,4.24045 -9.69976,-4.48737 0.74865,-4.10292 0.48193,-5.22949 -1.37687,-5.81572 -2.6712,-0.84245 -4.82953,0.0239 -7.42468,2.98038 -3.94534,4.49446 -11.56683,0.84592 -11.56683,-5.53732 0,-2.08907 -1.08377,-4.689 -2.40842,-5.77768 -2.27005,-1.86571 -2.62064,-1.77045 -6.10275,1.65756 -2.03183,2.00032 -4.37415,3.63692 -5.20514,3.63692 -2.16742,0 -3.18228,-2.82691 -1.70386,-4.74628 1.84271,-2.39244 1.58457,-4.13854 -0.91577,-6.19345 -3.16992,-2.60533 -5.55777,-2.25797 -7.40686,1.07734 -4.47504,8.07225 -15.61426,-2.62735 -17.5152,-16.82406 -0.26138,-1.95203 -1.25625,-2.90071 -3.04211,-2.90071 -2.54938,0 -4.62366,3.87707 -7.1387,13.34323 -1.48401,5.58513 -3.07657,6.55966 -6.5614,4.01488 -1.71308,-1.25092 -4.33936,-4.52442 -5.83628,-7.27434 -3.73785,-6.86693 -7.29651,-6.30768 -7.88681,1.23945 -0.23672,3.02549 -1.05221,5.50086 -1.81234,5.50086 -0.76008,0 -2.71216,-1.85289 -4.33793,-4.11749 -4.03619,-5.6224 -7.4006,-4.95578 -7.9747,1.58007 -0.5242,5.96706 -3.31909,7.3371 -7.84256,3.8445 -4.75195,-3.66908 -6.5429,-3.09999 -6.5429,2.07886 0,7.82503 -0.94388,8.673 -6.60038,5.93008 -2.67028,-1.29491 -5.45401,-2.35434 -6.18606,-2.35434 -2.47882,0 -1.34885,4.17053 2.20172,8.12578 2.00586,2.23453 3.00149,4.37224 2.30337,4.94592 -1.44217,1.18537 -8.70242,-1.3968 -15.57415,-5.53901 -8.86976,-5.34655 -12.50013,-2.58521 -6.637,5.04818 l 3.5907,4.67484 -9.02777,-0.54225 c -8.20456,-0.49283 -9.11292,-0.32216 -9.96002,1.8715 -0.56262,1.45693 -0.002,3.58098 1.41537,5.35829 2.89707,3.63396 1.80197,4.7759 -2.68673,2.80149 -6.02155,-2.64859 -8.09781,1.27882 -4.41636,8.35376 0.84693,1.62753 0.34794,2.03048 -2.51434,2.03048 -4.63211,0 -7.31418,6.03815 -5.96542,13.43027 1.06646,5.84482 -0.69846,6.76006 -4.3071,2.23352 -2.71094,-3.40046 -5.58469,-3.72842 -7.45825,-0.85109 -0.90787,1.39406 -0.71399,2.9711 0.60611,4.9312 1.06747,1.5849 1.96335,3.28525 1.99084,3.77856 0.0954,1.71152 -6.9031,-2.85665 -7.75464,-5.06172 z"
             id="path2801"
             inkscape:connector-curvature="0"
             style="fill:#000000" />
          <path
             inkscape:connector-curvature="0"
             id="path4143"
             d="m 247.74194,206.38272 c 0,-4.4142 -1.1853,-6.26272 -4.58598,-7.15202 l -4.58598,-1.19926 5.64714,-5.89434 c 6.36001,-6.63841 5.59236,-8.70484 -3.2337,-8.70484 -4.97155,0 -5.80111,-0.65397 -4.58298,-3.61291 3.32965,-8.08791 3.43259,-10.83431 0.44903,-11.97921 -1.73141,-0.6644 -2.684,-2.79237 -2.15521,-4.81447 0.5212,-1.99308 -0.5105,-4.83393 -2.29266,-6.313 -3.88215,-3.2219 -4.27972,-8.37719 -0.64603,-8.37719 1.42685,0 5.76743,0.91005 9.64574,2.02234 4.88555,1.40116 7.89349,1.32351 9.79282,-0.25279 4.21549,-3.49855 3.37646,-5.79222 -4.88789,-13.36207 l -7.62925,-6.98812 8.40871,0 c 4.95581,0 9.46409,-1.27164 10.97882,-3.09678 1.41355,-1.70322 5.12968,-3.09677 8.25806,-3.09677 3.12838,0 6.96302,-1.54453 8.5214,-3.43229 5.09862,-6.17623 19.66882,-11.34018 27.72974,-9.82794 6.3559,1.19237 7.51282,0.78687 8.49745,-2.97837 0.894,-3.41864 2.53629,-4.25252 7.61497,-3.86648 6.29848,0.47875 6.45666,0.28094 5.79757,-7.249758 -0.37267,-4.258065 0.0419,-7.741936 0.92129,-7.741936 0.87938,0 5.1678,2.473268 9.52982,5.496151 6.0252,4.175467 8.5075,4.919597 10.33032,3.096774 1.31966,-1.319657 4.07163,-2.399376 6.11551,-2.399376 2.22717,0 3.71612,-1.516528 3.71612,-3.784947 0,-6.027988 2.22845,-6.702071 8.16997,-2.471337 8.89482,6.333676 11.09081,6.011758 11.57689,-1.697099 0.24002,-3.806618 1.86344,-8.348154 3.60758,-10.092301 2.8519,-2.851893 3.39485,-2.340555 5.39264,5.078674 2.20656,8.194558 2.30154,8.258223 14.17089,9.498815 6.57219,0.68693 15.36798,2.677324 19.5462,4.423095 9.18398,3.837312 19.27919,4.115991 21.49925,0.593487 1.0764,-1.70788 1.99036,-0.560675 2.70249,3.392121 1.59664,8.862507 6.78751,11.295897 14.4459,6.771967 6.11939,-3.61481 6.24303,-3.60376 6.24303,0.5579 0,5.12782 5.38509,5.61457 11.8693,1.07285 4.27229,-2.99243 4.60472,-2.875 5.84446,2.06451 1.57363,6.26984 6.16462,6.65377 13.25398,1.10839 7.15921,-5.6 8.80589,-5.12952 7.22581,2.06452 -0.85586,3.89675 -0.5339,6.19355 0.86821,6.19355 1.22573,0 2.22857,1.77519 2.22857,3.94486 0,2.70499 3.08217,5.34409 9.80645,8.39672 5.39355,2.44853 13.52258,6.26406 18.06451,8.47896 l 8.25807,4.0271 L 528,143.06236 c -13.69429,-1.40454 -14.68449,0.16242 -6.70968,10.61792 6.78611,8.89706 6.5511,9.47683 -2.3362,5.76348 -10.21723,-4.26904 -12.64244,-1.49774 -8.26449,9.44386 4.34248,10.85292 4.27299,11.27879 -1.21352,7.4359 -7.50669,-5.25789 -11.92772,-4.15345 -11.92772,2.97971 0,3.40645 -0.74323,6.19354 -1.65162,6.19354 -3.62421,0 -6.60645,-5.31209 -6.60645,-11.76774 0,-7.98938 -2.93359,-8.6557 -9.78213,-2.22184 -3.85294,3.61965 -5.24724,4.00812 -6.58969,1.83598 -0.9365,-1.5153 -1.2467,-4.49902 -0.6893,-6.63049 1.4104,-5.39333 -4.21392,-7.0253 -10.35167,-3.00369 -5.56701,3.64765 -7.98429,2.1522 -10.66721,-6.59931 -1.69897,-5.54194 -6.56679,-5.98427 -11.97675,-1.08832 -3.78777,3.42789 -3.87929,3.35373 -2.52422,-2.04528 1.76421,-7.02919 -3.14395,-9.51683 -10.7478,-5.44738 -4.78443,2.56055 -5.59735,2.36972 -9.28033,-2.17857 -2.22012,-2.74173 -4.5629,-7.61661 -5.2062,-10.83308 -0.64329,-3.21648 -2.01936,-6.3733 -3.05792,-7.01516 -2.97622,-1.83941 -7.51076,3.03456 -8.95936,9.62999 -1.97581,8.9958 -5.13216,9.53786 -11.32871,1.94554 -5.88097,-7.20567 -10.32258,-7.01556 -10.32258,0.44182 0,4.16902 -0.14809,4.19314 -4.05214,0.66002 -4.94765,-4.47756 -10.39947,-2.80876 -10.39947,3.18328 0,3.39289 -0.83623,4.07157 -3.6129,2.93223 -7.23757,-2.96979 -9.79924,-2.11848 -10.44523,3.47121 -0.59944,5.18702 -1.01897,5.39473 -6.81506,3.3742 -7.89872,-2.7535 -9.47028,-1.08447 -5.16532,5.48571 4.19729,6.40588 2.05202,6.55777 -9.99,0.70731 -10.4669,-5.08521 -13.22466,-4.10369 -9.77047,3.47743 2.30496,5.05884 2.17382,5.17002 -6.09886,5.17002 -7.95602,0 -8.39496,0.31136 -7.44493,5.28109 0.71894,3.76093 0.23739,4.9848 -1.6729,4.25175 -3.4094,-1.30831 -7.93476,3.984 -6.03503,7.05784 0.78859,1.27597 -0.52498,3.69192 -2.91904,5.36879 -2.81789,1.97373 -4.35284,5.28075 -4.35284,9.37812 0,5.36785 -0.46641,5.94219 -3.07048,3.781 -3.90132,-3.2378 -9.31662,-1.24814 -9.31662,3.42306 0,2.78015 -0.55054,3.02394 -2.47742,1.09705 -3.23716,-3.23716 -9.33017,-3.17688 -10.43416,0.10323 -0.67844,2.01577 -1.61456,1.96487 -4.27664,-0.23251 -2.91097,-2.40283 -3.59443,-2.32754 -4.68565,0.51613 -2.18125,5.68424 -7.02935,3.87484 -7.02935,-2.62348 z"
             style="fill:#ffffff;fill-opacity:1;stroke:#000000;stroke-width:0.35433072;stroke-miterlimit:4;stroke-dasharray:none" />
          <path
             inkscape:connector-curvature="0"
             id="path4145"
             d="m 61.419355,338.1056 c -2.178721,-1.26899 -3.612903,-4.57919 -3.612903,-8.33887 0,-5.25394 -0.717314,-6.13079 -4.560529,-5.57484 -2.885533,0.41742 -5.000537,2.55537 -5.758551,5.82101 -0.921474,3.96987 -2.711795,5.30941 -7.755732,5.80294 -7.110281,0.69572 -8.070788,-0.98075 -9.238854,-16.12552 -0.520372,-6.74698 -1.104527,-7.299 -8.815367,-8.33044 -14.4102913,-1.92757 -17.6049814,-6.32265 -7.225806,-9.94085 6.217885,-2.16756 8.545498,-6.5029 3.491364,-6.5029 -5.698908,0 -10.2434514,-5.31042 -8.7016718,-10.16814 1.5184198,-4.78412 6.8272438,-5.20285 16.0316158,-1.26448 5.272572,2.25603 7.053985,-4.28879 2.52846,-9.28944 -4.191615,-4.63168 -3.827951,-4.74852 12.762591,-4.10059 10.516592,0.41072 12.943292,-2.83026 6.919899,-9.24187 -4.639011,-4.938 -4.147561,-9.29032 1.049034,-9.29032 1.578426,0 5.374722,3.28403 8.43621,7.29785 3.061489,4.01382 6.579392,6.96018 7.817561,6.54745 1.238166,-0.41272 2.941068,-4.79142 3.784225,-9.73045 2.040404,-11.95226 4.298634,-13.82596 9.90566,-8.21894 3.950203,3.95021 4.446133,6.23619 3.672675,16.92915 -0.962992,13.31324 1.561695,17.00797 7.981305,11.68016 2.965703,-2.46131 3.205767,-2.28339 2.008568,1.48865 -1.042413,3.28436 -0.148377,4.836 3.831234,6.64923 6.722997,3.0632 6.657917,6.58271 -0.121722,6.58271 -7.56685,0 -5.749101,4.37505 5.303239,12.76411 8.94974,6.79312 13.20668,14.0746 8.22838,14.0746 -1.32352,0 -4.76854,-1.85807 -7.6556,-4.12904 -4.673132,-3.67588 -12.950446,-5.69996 -12.950446,-3.16681 0,0.52922 1.525349,4.1609 3.389663,8.07041 3.413475,7.15813 2.57589,15.05577 -1.340068,12.63557 -1.159729,-0.71675 -3.972269,-4.95628 -6.250089,-9.42118 -6.133915,-12.02346 -10.251119,-10.75261 -10.251119,3.16421 0,9.04145 -0.793113,11.70667 -3.993309,13.41936 -4.752587,2.54351 -4.377068,2.54741 -8.909917,-0.0927 z"
             style="fill:#ffffff;fill-opacity:1;stroke:#000000;stroke-width:0.35433072;stroke-miterlimit:4;stroke-dasharray:none" />
        </g>
      </g>
    </g>
  </g>
</svg>
