<?xml version="1.0" encoding="iso-8859-1"?>
<!-- Generator: Adobe Illustrator 18.0.0, SVG Export Plug-In . SVG Version: 6.00 Build 0)  -->
<!DOCTYPE svg PUBLIC "-//W3C//DTD SVG 1.1//EN" "http://www.w3.org/Graphics/SVG/1.1/DTD/svg11.dtd">
<svg version="1.1" id="Capa_1" xmlns="http://www.w3.org/2000/svg" xmlns:xlink="http://www.w3.org/1999/xlink" x="0px" y="0px"
	 viewBox="0 0 60 60" style="enable-background:new 0 0 60 60;" xml:space="preserve">
<g>
	<polygon style="fill:#E6E7E8;" points="40.908,10.034 39.432,23.46 51.785,28.924 39.42,34.359 40.864,47.788 29.975,39.797 
		19.067,47.763 20.543,34.337 8.19,28.873 20.555,23.438 19.111,10.009 30,18 	"/>
	<path style="fill:#D1D4D1;" d="M57.783,14.732c-0.252-0.491-0.854-0.685-1.347-0.433l-8.779,4.508l1.913-9.078
		c0.114-0.54-0.232-1.071-0.772-1.185c-0.537-0.114-1.071,0.231-1.185,0.772l-2.153,10.216c-0.004,0.018,0.002,0.035,0,0.054
		c-0.011,0.071-0.006,0.139-0.002,0.209c0.003,0.046-0.008,0.095,0.001,0.14L31,27.362V11.454l7.659-6.701
		c0.416-0.364,0.458-0.995,0.094-1.411c-0.364-0.416-0.996-0.458-1.411-0.094L31,8.796V1c0-0.552-0.448-1-1-1s-1,0.448-1,1v7.796
		l-6.341-5.549c-0.416-0.364-1.047-0.321-1.411,0.094c-0.364,0.416-0.322,1.047,0.094,1.411L29,11.454V27.11l-14-9.52V8
		c0-0.552-0.448-1-1-1s-1,0.448-1,1v8.23l-7.438-5.057c-0.458-0.31-1.078-0.191-1.39,0.265c-0.311,0.457-0.192,1.079,0.265,1.39
		l7.14,4.855l-7.865,2.359c-0.529,0.159-0.83,0.716-0.671,1.245C3.172,21.721,3.569,22,4,22c0.095,0,0.192-0.014,0.288-0.042
		l9.422-2.826l14.336,9.748l-15.243,7.828l-8.42-4.591c-0.486-0.265-1.092-0.085-1.356,0.399C2.761,33,2.94,33.608,3.425,33.872
		l7.226,3.94l-8.001,4.109c-0.491,0.252-0.685,0.855-0.433,1.347c0.177,0.345,0.527,0.543,0.891,0.543
		c0.154,0,0.31-0.035,0.456-0.11l7.681-3.944l-1.694,8.035c-0.114,0.54,0.232,1.071,0.772,1.185
		c0.069,0.015,0.139,0.021,0.207,0.021c0.463,0,0.878-0.323,0.978-0.794l2.029-9.624L29,30.638v17.908l-7.659,6.701
		c-0.416,0.364-0.458,0.995-0.094,1.411C21.445,56.884,21.722,57,22,57c0.233,0,0.468-0.082,0.658-0.248L29,51.204V59
		c0,0.552,0.448,1,1,1s1-0.448,1-1v-7.796l6.341,5.549C37.531,56.918,37.766,57,38,57c0.278,0,0.555-0.116,0.753-0.341
		c0.364-0.416,0.322-1.047-0.094-1.411L31,48.546V30.89l14,9.52V50c0,0.552,0.448,1,1,1s1-0.448,1-1v-8.23l7.437,5.057
		C54.61,46.944,54.806,47,54.999,47c0.32,0,0.634-0.153,0.828-0.438c0.311-0.457,0.192-1.079-0.265-1.39l-8.161-5.549l8.885-2.666
		c0.529-0.159,0.83-0.716,0.671-1.245c-0.159-0.529-0.717-0.826-1.245-0.671l-10,3c-0.018,0.005-0.031,0.019-0.048,0.026
		c-0.066,0.024-0.123,0.06-0.182,0.097c-0.04,0.025-0.089,0.039-0.125,0.069L31.956,29.12l15.243-7.828l8.42,4.591
		c0.152,0.083,0.316,0.122,0.478,0.122c0.354,0,0.697-0.188,0.879-0.521c0.265-0.485,0.086-1.092-0.399-1.356l-7.226-3.94
		l8.001-4.109C57.842,15.827,58.036,15.224,57.783,14.732z"/>
</g>
<g>
</g>
<g>
</g>
<g>
</g>
<g>
</g>
<g>
</g>
<g>
</g>
<g>
</g>
<g>
</g>
<g>
</g>
<g>
</g>
<g>
</g>
<g>
</g>
<g>
</g>
<g>
</g>
<g>
</g>
</svg>
