<?xml version="1.0" encoding="iso-8859-1"?>
<!-- Generator: Adobe Illustrator 18.0.0, SVG Export Plug-In . SVG Version: 6.00 Build 0)  -->
<!DOCTYPE svg PUBLIC "-//W3C//DTD SVG 1.1//EN" "http://www.w3.org/Graphics/SVG/1.1/DTD/svg11.dtd">
<svg version="1.1" id="Capa_1" xmlns="http://www.w3.org/2000/svg" xmlns:xlink="http://www.w3.org/1999/xlink" x="0px" y="0px"
	 viewBox="0 0 54.044 54.044" style="enable-background:new 0 0 54.044 54.044;" xml:space="preserve">
<g>
	<path style="fill:#ECF0F1;" d="M23.47,16.261l18.394-1.971c2.52-0.27,4.432-2.397,4.432-4.932V5.607
		c0-2.673-2.118-4.865-4.789-4.957L22.738,0.003c-2.92-0.101-5.294,2.332-5.122,5.248l0.375,6.369
		C18.157,14.448,20.653,16.563,23.47,16.261z"/>
	<path style="fill:#E64C3C;" d="M9.3,43.288c0.937-1.412,2.179-2.596,3.567-3.568l7.998-5.599c0.27-0.189,0.431-0.498,0.431-0.827
		v-17.3c0.677,0.239,1.411,0.348,2.174,0.266l18.394-1.971c0.509-0.055,0.983-0.202,1.432-0.396v11.89c0,3.175,0.32,6.343,1.02,9.44
		c0.696,3.082,1.016,7.328-2.02,8.597c0,0-14.272,5.852-23.392,9.544c-3.161,1.28-6.879,0.76-9.312-1.63
		C7.731,49.905,6.726,47.17,9.3,43.288z"/>
	<path style="fill:#C03A2B;" d="M12.401,40.075c-1.197,0.903-2.272,1.964-3.101,3.214c-2.574,3.881-1.569,6.617,0.293,8.446
		c2.433,2.39,6.151,2.91,9.312,1.63c0.11-0.044,0.224-0.091,0.335-0.136c0.673-1.261,1.057-2.7,1.057-4.229
		C20.296,44.404,16.849,40.621,12.401,40.075z"/>
	<path style="fill:#C03A2B;" d="M35.296,42.5c0,1.381,0.248,2.697,0.686,3.905c3.7-1.513,6.314-2.585,6.314-2.585
		c3.036-1.268,2.716-5.515,2.02-8.597c-0.236-1.044-0.414-2.099-0.566-3.157C38.996,32.643,35.296,37.092,35.296,42.5z"/>
	<path style="fill:#F0C419;" d="M25.097,21.668c0.438-0.438,0.952-0.658,1.466-0.662c0.514,0.004,1.027,0.224,1.465,0.662
		c0.307,0.307,0.654,0.536,1.015,0.727c0.595,0.333,1.242,0.528,1.907,0.528c1.057,0,2.085-0.445,2.894-1.254
		c0.438-0.438,0.951-0.658,1.465-0.662c0.514,0.004,1.027,0.224,1.466,0.662c0.809,0.809,1.836,1.254,2.894,1.254
		s2.085-0.445,2.894-1.254c0.227-0.227,0.475-0.394,0.732-0.505v-2.076c-0.769,0.154-1.512,0.533-2.146,1.167
		c-0.874,0.875-2.083,0.876-2.959,0c-0.194-0.194-0.401-0.361-0.613-0.51v-0.024c-0.242-0.167-0.497-0.296-0.755-0.405
		c-0.013-0.005-0.026-0.009-0.039-0.014c-0.213-0.087-0.428-0.155-0.647-0.203c-0.073-0.016-0.146-0.026-0.219-0.038
		c-0.157-0.025-0.313-0.043-0.471-0.048c-0.109-0.004-0.218-0.002-0.327,0.003c-0.116,0.006-0.232,0.019-0.348,0.036
		c-0.139,0.02-0.276,0.044-0.414,0.079c-0.073,0.019-0.144,0.045-0.217,0.068c-0.172,0.055-0.341,0.115-0.508,0.194
		c-0.005,0.002-0.009,0.005-0.014,0.007c-0.431,0.207-0.844,0.483-1.217,0.856c-0.435,0.434-0.952,0.651-1.469,0.655
		c-0.515-0.005-1.029-0.222-1.462-0.655c-0.373-0.373-0.786-0.649-1.217-0.856c-0.005-0.002-0.009-0.005-0.013-0.007
		c-0.167-0.079-0.336-0.139-0.508-0.194c-0.072-0.024-0.144-0.049-0.217-0.068c-0.137-0.035-0.275-0.059-0.414-0.079
		c-0.116-0.017-0.231-0.029-0.348-0.036c-0.109-0.005-0.218-0.007-0.327-0.003c-0.158,0.005-0.314,0.023-0.471,0.048
		c-0.073,0.012-0.146,0.021-0.219,0.038c-0.219,0.048-0.435,0.116-0.647,0.203c-0.013,0.005-0.026,0.008-0.039,0.014
		c-0.259,0.109-0.513,0.238-0.755,0.405v0.024c-0.212,0.149-0.419,0.316-0.613,0.51c-0.698,0.697-1.604,0.828-2.387,0.416v2.097
		C22.618,23.073,24.052,22.714,25.097,21.668z"/>
	<path style="fill:#F0C419;" d="M38.19,24.332c-0.194-0.194-0.401-0.361-0.613-0.51v-0.016c-0.204-0.136-0.416-0.251-0.635-0.346
		c-1.501-0.706-3.245-0.423-4.541,0.873c-0.438,0.438-0.951,0.658-1.465,0.662c-0.514-0.004-1.027-0.224-1.465-0.662
		c-1.295-1.295-3.04-1.578-4.541-0.873c-0.219,0.096-0.431,0.21-0.635,0.346v0.016c-0.212,0.149-0.419,0.316-0.613,0.51
		c-0.706,0.706-1.603,0.839-2.387,0.419v2.13c0.3,0.074,0.603,0.122,0.908,0.122c1.028,0,2.055-0.419,2.894-1.257
		c0.327-0.326,0.695-0.53,1.074-0.616c0.641-0.132,1.314,0.072,1.858,0.616c0.838,0.838,1.866,1.257,2.894,1.257
		c0.004,0,0.009-0.001,0.013-0.001c1.033,0.004,2.067-0.413,2.909-1.256c0.543-0.543,1.214-0.748,1.854-0.617
		c0.38,0.085,0.749,0.29,1.077,0.617c1.677,1.677,4.111,1.677,5.788,0c0.226-0.226,0.474-0.391,0.732-0.5v-2.042
		c-0.781,0.148-1.532,0.514-2.146,1.129C40.264,25.216,39.075,25.216,38.19,24.332z"/>
</g>
<g>
</g>
<g>
</g>
<g>
</g>
<g>
</g>
<g>
</g>
<g>
</g>
<g>
</g>
<g>
</g>
<g>
</g>
<g>
</g>
<g>
</g>
<g>
</g>
<g>
</g>
<g>
</g>
<g>
</g>
</svg>
