<?xml version="1.0" encoding="iso-8859-1"?>
<!-- Generator: Adobe Illustrator 18.0.0, SVG Export Plug-In . SVG Version: 6.00 Build 0)  -->
<!DOCTYPE svg PUBLIC "-//W3C//DTD SVG 1.1//EN" "http://www.w3.org/Graphics/SVG/1.1/DTD/svg11.dtd">
<svg version="1.1" id="Capa_1" xmlns="http://www.w3.org/2000/svg" xmlns:xlink="http://www.w3.org/1999/xlink" x="0px" y="0px"
	 viewBox="0 0 58 58" style="enable-background:new 0 0 58 58;" xml:space="preserve">
<g>
	<path style="fill:#4FBA6F;" d="M40,12L40,12c-4,4-18,4-22,0l0,0L29,0L40,12z"/>
	<path style="fill:#24AE5F;" d="M37.171,13.696c-4.499,1.734-11.843,1.734-16.342,0l-6.655,7.26h0
		c5.391,5.391,24.261,5.391,29.652,0h0L37.171,13.696z"/>
	<path style="fill:#4FBA6F;" d="M40.227,23.161c-6.112,2.449-16.342,2.449-22.454,0l-7.425,8.1c8.116,8.116,30.116,7.188,37.304,0
		L40.227,23.161z"/>
	<path style="fill:#4C8056;" d="M44.066,33.783c-7.911,4.081-21.921,4.482-30.176,0.048L6.522,41.87v0
		c8.174,8.174,36.783,8.174,44.957,0v0L44.066,33.783z"/>
	<polygon style="fill:#805333;" points="31,53 31,48 27,48 27,53 24,53 24,57 34,57 34,53 	"/>
	<rect x="18" y="56" style="fill:#804537;" width="22" height="2"/>
	<circle style="fill:#C03A2B;" cx="22" cy="30" r="3"/>
	<circle style="fill:#C03A2B;" cx="34" cy="42" r="3"/>
	<polygon style="fill:#F3D55B;" points="35.69,17 36.521,18.684 38.38,18.954 37.035,20.265 37.353,22.117 35.69,21.243 
		34.027,22.117 34.345,20.265 33,18.954 34.859,18.684 	"/>
	<polygon style="fill:#F3D55B;" points="22.69,15.883 23.521,17.568 25.38,17.838 24.035,19.149 24.353,21 22.69,20.126 21.027,21 
		21.345,19.149 20,17.838 21.859,17.568 	"/>
	<polygon style="fill:#F3D55B;" points="37.31,27 38.141,28.684 40,28.954 38.655,30.265 38.973,32.117 37.31,31.243 35.647,32.117 
		35.965,30.265 34.62,28.954 36.479,28.684 	"/>
	<polygon style="fill:#F3D55B;" points="18.31,38 19.141,39.684 21,39.954 19.655,41.265 19.973,43.117 18.31,42.243 16.647,43.117 
		16.965,41.265 15.62,39.954 17.479,39.684 	"/>
	<polygon style="fill:#F3D55B;" points="27.31,6 28.141,7.684 30,7.954 28.655,9.265 28.973,11.117 27.31,10.243 25.647,11.117 
		25.965,9.265 24.62,7.954 26.479,7.684 	"/>
</g>
<g>
</g>
<g>
</g>
<g>
</g>
<g>
</g>
<g>
</g>
<g>
</g>
<g>
</g>
<g>
</g>
<g>
</g>
<g>
</g>
<g>
</g>
<g>
</g>
<g>
</g>
<g>
</g>
<g>
</g>
</svg>
