<?xml version="1.0" encoding="iso-8859-1"?>
<!-- Generator: Adobe Illustrator 19.0.0, SVG Export Plug-In . SVG Version: 6.00 Build 0)  -->
<svg version="1.1" id="Layer_1" xmlns="http://www.w3.org/2000/svg" xmlns:xlink="http://www.w3.org/1999/xlink" x="0px" y="0px"
	 viewBox="0 0 511.944 511.944" style="enable-background:new 0 0 511.944 511.944;" xml:space="preserve">
<g>
	<g>
		<path style="fill:#559E62;" d="M228.341,63.008c8.156-8.381,19.528-13.626,32.148-13.626c12.629,0,23.992,5.246,32.148,13.626
			c5.021-5.695,14.857-20.543,27.253-33.864c-3.8-1.141-7.5-2.65-10.968-4.653l-22.645-13.078c-15.98-9.225-35.66-9.225-51.631,0
			l-22.654,13.078c-3.449,1.994-7.132,3.494-10.914,4.644C213.484,42.456,223.329,57.304,228.341,63.008"/>
		<path style="fill:#559E62;" d="M143.719,426.64c-14.884,0-26.947-12.063-26.947-26.947c0-14.884,12.063-26.947,26.947-26.947
			s26.947,12.063,26.947,26.947C170.667,414.577,158.603,426.64,143.719,426.64 M505.021,230.158l-13.069-22.645
			c-4.527-7.851-6.899-16.752-6.899-25.825v-13.555c-4.779,4.303-11.03,6.997-17.965,6.997c-14.884,0-26.947-12.063-26.947-26.947
			s12.063-26.947,26.947-26.947c1.761,0,3.476,0.198,5.138,0.521c-3.719-4.258-8.075-8.012-13.123-10.905L437.23,98.305
			c-7.949-4.554-14.543-11.147-19.097-19.088l-12.548-21.863c-0.485-0.853-1.087-1.617-1.617-2.434
			c0.287,5.919,0.314,11.246,0.063,14.327c-1.168,14.381,1.671,77.447-17.785,96.903c-7.527,7.527-18.1,10.231-29.292,9.207
			c18.27,21.827,29.292,49.924,29.292,80.618c0,9.369-1.105,18.468-3.045,27.253c1.015-0.117,2.003-0.305,3.045-0.305
			c14.884,0,26.947,12.063,26.947,26.947c0,14.884-12.063,26.947-26.947,26.947c-8.749,0-16.447-4.24-21.369-10.707
			c-22.591,33.549-60.91,55.619-104.385,55.619c-69.452,0-125.754-56.302-125.754-125.754c0-30.738,11.057-58.871,29.382-80.716
			c-11.219,1.033-21.845-1.572-29.382-9.108c-19.456-19.456-16.618-82.522-17.785-96.903c-0.252-3.099-0.234-8.47,0.072-14.426
			c-0.557,0.844-1.177,1.644-1.689,2.533l-12.54,21.863c-4.554,7.94-11.147,14.534-19.097,19.088l-21.845,12.548
			c-16.043,9.198-25.923,26.283-25.923,44.778v26.058c0,9.072-2.398,17.974-6.934,25.825l-13.087,22.645
			c-5.758,9.971-7.923,21.387-6.494,32.454c4.725-4.087,10.806-6.638,17.534-6.638c14.884,0,26.947,12.063,26.947,26.947
			c0,13.339-9.719,24.342-22.438,26.489c2.892,6.557,4.473,13.635,4.473,20.848v26.058c0,18.495,9.881,35.579,25.923,44.778
			l21.854,12.548c7.949,4.554,14.534,11.147,19.088,19.088l12.54,21.863c9.207,16.043,26.283,25.941,44.778,25.941h26.067
			c9.063,0,17.965,2.389,25.816,6.916l22.645,13.078c15.98,9.225,35.66,9.225,51.64,0l20.516-11.848
			c-0.826-2.587-1.392-5.291-1.392-8.147c0-14.884,12.063-26.947,26.947-26.947s26.947,12.063,26.947,26.947h1.5
			c18.504,0,35.579-9.899,44.787-25.941l12.54-21.863c4.554-7.94,11.147-14.534,19.097-19.088l21.881-12.548
			c16.043-9.198,25.95-26.283,25.95-44.778v-26.058c0-9.072,2.371-17.974,6.899-25.825l13.078-22.645
			C514.255,265.818,514.246,246.129,505.021,230.158"/>
	</g>
	<path style="fill:#BE3A2B;" d="M121.905,25.647c5.3-9.737,15.899-20.785,36.801-21.181c30.468-0.584,59.635,47.176,69.632,58.539
		c-7.869,8.093-12.764,19.106-12.764,31.286c0,8.165,2.344,15.71,6.153,22.312c0,45.334-61.305,75.228-86.995,49.547
		c-19.447-19.456-16.618-82.531-17.785-96.912C116.246,60.463,117.567,33.624,121.905,25.647"/>
	<g>
		<path style="fill:#922C25;" d="M215.57,103.276c-1.877,0-3.764-0.584-5.381-1.797l-35.93-26.947
			c-3.97-2.973-4.779-8.605-1.796-12.575c2.973-3.979,8.605-4.77,12.575-1.796l35.93,26.947c3.97,2.973,4.779,8.605,1.796,12.575
			C220.995,102.036,218.31,103.276,215.57,103.276"/>
		<path style="fill:#922C25;" d="M179.658,130.223c-2.74,0-5.425-1.24-7.195-3.593c-2.982-3.97-2.174-9.602,1.796-12.575
			l35.93-26.947c3.97-2.982,9.602-2.183,12.575,1.796c2.982,3.97,2.174,9.602-1.796,12.575l-35.93,26.947
			C183.422,129.639,181.535,130.223,179.658,130.223"/>
	</g>
	<path style="fill:#BE3A2B;" d="M399.077,25.647c-5.3-9.737-15.899-20.785-36.801-21.181c-30.469-0.584-59.635,47.176-69.632,58.539
		c7.869,8.093,12.764,19.106,12.764,31.286c0,8.165-2.344,15.71-6.153,22.312c0,45.334,61.305,75.228,86.995,49.547
		c19.447-19.456,16.618-82.531,17.785-96.912C404.736,60.463,403.416,33.624,399.077,25.647"/>
	<g>
		<path style="fill:#922C25;" d="M305.412,103.276c-2.74,0-5.425-1.24-7.195-3.593c-2.982-3.97-2.174-9.602,1.796-12.575
			l35.93-26.947c3.97-2.982,9.602-2.183,12.575,1.796c2.982,3.97,2.174,9.602-1.796,12.575l-35.93,26.947
			C309.176,102.692,307.29,103.276,305.412,103.276"/>
		<path style="fill:#922C25;" d="M341.324,130.223c-1.877,0-3.764-0.584-5.38-1.796l-35.93-26.947
			c-3.97-2.973-4.779-8.605-1.796-12.575c2.982-3.97,8.605-4.761,12.575-1.796l35.93,26.947c3.97,2.973,4.779,8.605,1.796,12.575
			C346.75,128.983,344.064,130.223,341.324,130.223"/>
		<path style="fill:#922C25;" d="M299.252,116.602L299.252,116.602c-7.761,13.447-22.124,22.6-38.759,22.6
			c-16.645,0-30.998-9.153-38.759-22.6l0,0c0,22.205-14.74,40.655-32.768,50.733l-18.297,39.244l32.121-5.138l16.725,27.917
			l40.978-90.157l35.894,90.157l16.725-27.917l32.121,5.138l-20.48-43.933C310.211,152.029,299.252,135.726,299.252,116.602"/>
	</g>
	<g>
		<path style="fill:#EEC319;" d="M413.193,309.868c0,14.884-12.063,26.947-26.947,26.947s-26.947-12.063-26.947-26.947
			c0-14.884,12.063-26.947,26.947-26.947S413.193,294.984,413.193,309.868"/>
		<path style="fill:#EEC319;" d="M494.035,148.184c0,14.884-12.063,26.947-26.947,26.947c-14.884,0-26.947-12.063-26.947-26.947
			s12.063-26.947,26.947-26.947C481.972,121.237,494.035,133.3,494.035,148.184"/>
		<path style="fill:#EEC319;" d="M359.298,480.535c0,14.884-12.063,26.947-26.947,26.947s-26.947-12.063-26.947-26.947
			c0-14.884,12.063-26.947,26.947-26.947S359.298,465.651,359.298,480.535"/>
		<path style="fill:#EEC319;" d="M170.667,399.693c0,14.884-12.063,26.947-26.947,26.947s-26.947-12.063-26.947-26.947
			c0-14.884,12.063-26.947,26.947-26.947S170.667,384.809,170.667,399.693"/>
		<path style="fill:#EEC319;" d="M53.895,282.921c0,14.884-12.063,26.947-26.947,26.947S0,297.805,0,282.921
			c0-14.884,12.063-26.947,26.947-26.947S53.895,268.037,53.895,282.921"/>
	</g>
	<path style="fill:#F97B76;" d="M305.404,94.289c0,24.801-20.112,44.912-44.912,44.912c-24.801,0-44.912-20.112-44.912-44.912
		s20.112-44.912,44.912-44.912C285.292,49.377,305.404,69.489,305.404,94.289"/>
	<g>
		<path style="fill:#4C8056;" d="M134.737,255.977c-54.568,0-98.807-44.239-98.807-98.807v24.522c0,4.635-0.647,9.225-1.868,13.662
			c15.459,40.619,54.694,69.605,100.675,69.605V255.977z"/>
		<path style="fill:#4C8056;" d="M386.246,246.995v8.982c54.568,0,98.807,44.239,98.807,98.807v-24.531
			c0-4.644,0.638-9.243,1.859-13.68C471.444,275.972,432.218,246.995,386.246,246.995"/>
		<path style="fill:#4C8056;" d="M269.474,381.732h-8.982c0,54.568-44.239,98.807-98.807,98.807h24.495
			c4.644,0,9.252,0.647,13.689,1.868C240.487,466.948,269.474,427.713,269.474,381.732"/>
	</g>
</g>
<g>
</g>
<g>
</g>
<g>
</g>
<g>
</g>
<g>
</g>
<g>
</g>
<g>
</g>
<g>
</g>
<g>
</g>
<g>
</g>
<g>
</g>
<g>
</g>
<g>
</g>
<g>
</g>
<g>
</g>
</svg>
